<svg xmlns="http://www.w3.org/2000/svg" width="640" height="360" viewBox="0 0 640 360" fill="none">
  <defs>
    <linearGradient id="bg" x1="44" y1="28" x2="580" y2="332" gradientUnits="userSpaceOnUse">
      <stop stop-color="#0F2B2A"/>
      <stop offset="0.52" stop-color="#103734"/>
      <stop offset="1" stop-color="#091514"/>
    </linearGradient>
    <linearGradient id="accent" x1="72" y1="54" x2="272" y2="200" gradientUnits="userSpaceOnUse">
      <stop stop-color="#5FD0B5"/>
      <stop offset="1" stop-color="#199D7D"/>
    </linearGradient>
    <linearGradient id="panel" x1="393" y1="72" x2="574" y2="258" gradientUnits="userSpaceOnUse">
      <stop stop-color="#173C38"/>
      <stop offset="1" stop-color="#0C2321"/>
    </linearGradient>
    <filter id="shadow" x="20" y="12" width="600" height="336" filterUnits="userSpaceOnUse" color-interpolation-filters="sRGB">
      <feFlood flood-opacity="0" result="BackgroundImageFix"/>
      <feColorMatrix in="SourceAlpha" type="matrix" values="0 0 0 0 0 0 0 0 0 0 0 0 0 0 0 0 0 0 127 0" result="hardAlpha"/>
      <feOffset dy="10"/>
      <feGaussianBlur stdDeviation="14"/>
      <feComposite in2="hardAlpha" operator="out"/>
      <feColorMatrix type="matrix" values="0 0 0 0 0.0156863 0 0 0 0 0.0901961 0 0 0 0 0.0862745 0 0 0 0.45 0"/>
      <feBlend mode="normal" in2="BackgroundImageFix" result="effect1_dropShadow_1_1"/>
      <feBlend mode="normal" in="SourceGraphic" in2="effect1_dropShadow_1_1" result="shape"/>
    </filter>
  </defs>

  <rect width="640" height="360" rx="30" fill="#081110"/>
  <g filter="url(#shadow)">
    <rect x="34" y="26" width="572" height="292" rx="28" fill="url(#bg)"/>
    <rect x="34.75" y="26.75" width="570.5" height="290.5" rx="27.25" stroke="rgba(255,255,255,0.10)"/>
  </g>

  <circle cx="132" cy="104" r="78" fill="url(#accent)" fill-opacity="0.18"/>
  <circle cx="132" cy="104" r="56" fill="url(#accent)" fill-opacity="0.22"/>
  <circle cx="132" cy="104" r="34" fill="url(#accent)" fill-opacity="0.34"/>

  <path d="M121 73h22c13.255 0 24 10.745 24 24v14c0 13.255-10.745 24-24 24h-22c-13.255 0-24-10.745-24-24V97c0-13.255 10.745-24 24-24Z" fill="#E9FFF9" fill-opacity="0.94"/>
  <path d="M112 121h40" stroke="#199D7D" stroke-width="6" stroke-linecap="round"/>
  <path d="M119 88h26" stroke="#199D7D" stroke-width="6" stroke-linecap="round"/>
  <path d="M119 103h26" stroke="#199D7D" stroke-width="6" stroke-linecap="round"/>

  <text x="72" y="202" fill="#E9FFF9" font-family="SF Pro Display, Arial, sans-serif" font-size="18" font-weight="700" letter-spacing="1.8">TELEGRAM MINI APP</text>
  <text x="72" y="238" fill="#FFFFFF" font-family="SF Pro Display, Arial, sans-serif" font-size="34" font-weight="800">Каталог Счетчики Юг</text>
  <text x="72" y="270" fill="#B9D8D0" font-family="SF Pro Display, Arial, sans-serif" font-size="18" font-weight="500">Каталог, акции и быстрый переход к менеджеру</text>

  <g opacity="0.95">
    <rect x="392" y="72" width="184" height="176" rx="22" fill="url(#panel)"/>
    <rect x="410" y="96" width="148" height="28" rx="14" fill="#214B45"/>
    <rect x="410" y="138" width="70" height="36" rx="18" fill="#1E5D53"/>
    <rect x="488" y="138" width="70" height="36" rx="18" fill="#173C38"/>
    <rect x="410" y="184" width="148" height="42" rx="21" fill="#5FD0B5"/>
    <text x="432" y="115" fill="#D8F8F0" font-family="SF Pro Display, Arial, sans-serif" font-size="14" font-weight="700">СЧЕТЧИКИ ЮГ</text>
    <text x="424" y="160" fill="#D8F8F0" font-family="SF Pro Display, Arial, sans-serif" font-size="12" font-weight="700">АКЦИИ</text>
    <text x="500" y="160" fill="#D8F8F0" font-family="SF Pro Display, Arial, sans-serif" font-size="12" font-weight="700">ХИТЫ</text>
    <text x="437" y="209" fill="#0D2422" font-family="SF Pro Display, Arial, sans-serif" font-size="14" font-weight="800">ОТКРЫТЬ КАТАЛОГ</text>
  </g>

  <rect x="72" y="292" width="146" height="10" rx="5" fill="#5FD0B5" fill-opacity="0.92"/>
  <rect x="228" y="292" width="72" height="10" rx="5" fill="#B9D8D0" fill-opacity="0.48"/>
</svg>
