<svg xmlns="http://www.w3.org/2000/svg" width="1080" height="1350" viewBox="0 0 1080 1350">
  <defs>
    <linearGradient id="bg" x1="0" y1="0" x2="1" y2="1">
      <stop offset="0%" stop-color="#5a1717"/>
      <stop offset="55%" stop-color="#220b0b"/>
      <stop offset="100%" stop-color="#090505"/>
    </linearGradient>
    <linearGradient id="line" x1="0" y1="0" x2="1" y2="0">
      <stop offset="0%" stop-color="#ff7d7d"/>
      <stop offset="100%" stop-color="#ffb36d"/>
    </linearGradient>
  </defs>
  <rect width="1080" height="1350" fill="url(#bg)"/>
  <circle cx="850" cy="212" r="188" fill="#ff7a7a" opacity="0.17"/>
  <circle cx="202" cy="1094" r="240" fill="#ff9b6e" opacity="0.08"/>
  <rect x="70" y="70" width="940" height="1210" rx="46" fill="none" stroke="#ffc29a" stroke-opacity="0.16" stroke-width="2"/>

  <rect x="120" y="108" width="286" height="54" rx="27" fill="#ff8d8d" fill-opacity="0.12" stroke="#ffb0b0" stroke-opacity="0.28"/>
  <text x="158" y="144" fill="#fff2ee" font-family="Arial, Helvetica, sans-serif" font-size="26" font-weight="700" letter-spacing="4">СЧЕТЧИКИ ЮГ</text>

  <g transform="translate(716 184)" opacity="0.96">
    <path d="M42 144 L108 78 L174 144 L108 210 Z" fill="#ffe6d4"/>
    <circle cx="108" cy="144" r="24" fill="#ff7d7d"/>
    <path d="M162 72 L200 34" stroke="#ffd2af" stroke-width="16" stroke-linecap="round"/>
  </g>

  <text x="120" y="500" fill="#fff6f2" font-family="Arial, Helvetica, sans-serif" font-size="118" font-weight="800">АКЦИИ</text>
  <rect x="124" y="542" width="228" height="8" rx="4" fill="url(#line)"/>

  <text x="120" y="636" fill="#efcfca" font-family="Arial, Helvetica, sans-serif" font-size="40" font-weight="500">Специальные цены и выгодные предложения</text>
  <text x="120" y="720" fill="#ffffff" font-family="Arial, Helvetica, sans-serif" font-size="36" font-weight="700">• временные скидки</text>
  <text x="120" y="780" fill="#ffffff" font-family="Arial, Helvetica, sans-serif" font-size="36" font-weight="700">• акционные подборки</text>
  <text x="120" y="840" fill="#ffffff" font-family="Arial, Helvetica, sans-serif" font-size="36" font-weight="700">• ограниченные предложения</text>

  <text x="120" y="1094" fill="#d9a794" font-family="Arial, Helvetica, sans-serif" font-size="26" font-weight="700" letter-spacing="3">TELEGRAM VITRINA</text>
  <text x="120" y="1148" fill="#ffffff" font-family="Arial, Helvetica, sans-serif" font-size="52" font-weight="700">Цена • Выгода • Заказ</text>
</svg>
