<svg xmlns="http://www.w3.org/2000/svg" width="1080" height="1350" viewBox="0 0 1080 1350">
  <defs>
    <linearGradient id="bg" x1="0" y1="0" x2="1" y2="1">
      <stop offset="0%" stop-color="#124132"/>
      <stop offset="55%" stop-color="#0a1a15"/>
      <stop offset="100%" stop-color="#050907"/>
    </linearGradient>
    <linearGradient id="line" x1="0" y1="0" x2="1" y2="0">
      <stop offset="0%" stop-color="#67dc8d"/>
      <stop offset="100%" stop-color="#b7ff9a"/>
    </linearGradient>
  </defs>
  <rect width="1080" height="1350" fill="url(#bg)"/>
  <circle cx="850" cy="220" r="186" fill="#67dc8d" opacity="0.14"/>
  <circle cx="214" cy="1110" r="240" fill="#89db77" opacity="0.08"/>
  <rect x="70" y="70" width="940" height="1210" rx="46" fill="none" stroke="#bfeab6" stroke-opacity="0.14" stroke-width="2"/>

  <rect x="120" y="108" width="286" height="54" rx="27" fill="#8fe39a" fill-opacity="0.11" stroke="#c2f0bf" stroke-opacity="0.28"/>
  <text x="158" y="144" fill="#f2fff2" font-family="Arial, Helvetica, sans-serif" font-size="26" font-weight="700" letter-spacing="4">СЧЕТЧИКИ ЮГ</text>

  <g transform="translate(696 180)" opacity="0.95">
    <rect x="20" y="70" width="214" height="146" rx="28" fill="#edfbe8"/>
    <rect x="54" y="32" width="146" height="54" rx="18" fill="#a0ebb0"/>
    <path d="M74 142 H180" stroke="#2d8d51" stroke-width="18" stroke-linecap="round"/>
    <path d="M74 184 H148" stroke="#2d8d51" stroke-width="18" stroke-linecap="round"/>
  </g>

  <text x="120" y="500" fill="#f4fff4" font-family="Arial, Helvetica, sans-serif" font-size="92" font-weight="800">ОПТОВЫЙ</text>
  <text x="120" y="600" fill="#f4fff4" font-family="Arial, Helvetica, sans-serif" font-size="92" font-weight="800">ЗАКАЗ</text>
  <rect x="124" y="640" width="292" height="8" rx="4" fill="url(#line)"/>

  <text x="120" y="736" fill="#d3ebd1" font-family="Arial, Helvetica, sans-serif" font-size="40" font-weight="500">Для монтажников, УК и объектов</text>
  <text x="120" y="820" fill="#ffffff" font-family="Arial, Helvetica, sans-serif" font-size="36" font-weight="700">• подбор под задачу</text>
  <text x="120" y="880" fill="#ffffff" font-family="Arial, Helvetica, sans-serif" font-size="36" font-weight="700">• комплектация объекта</text>
  <text x="120" y="940" fill="#ffffff" font-family="Arial, Helvetica, sans-serif" font-size="36" font-weight="700">• расчет и поставка</text>

  <text x="120" y="1094" fill="#9bcf9e" font-family="Arial, Helvetica, sans-serif" font-size="26" font-weight="700" letter-spacing="3">TELEGRAM VITRINA</text>
  <text x="120" y="1148" fill="#ffffff" font-family="Arial, Helvetica, sans-serif" font-size="52" font-weight="700">Расчет • Подбор • Поставка</text>
</svg>
